<svg xmlns="http://www.w3.org/2000/svg" width="150.86" height="35" viewBox="0 0 150.86 35"><rect class="svg__rect" x="0" y="0" width="55.28" height="35" fill="#31C4F3"/><rect class="svg__rect" x="53.28" y="0" width="97.58" height="35" fill="#389AD5"/><path class="svg__text" d="M15.70 22L14.22 22L14.22 13.47L19.64 13.47L19.64 14.66L15.70 14.66L15.70 17.20L19.13 17.20L19.13 18.38L15.70 18.38L15.70 22ZM23.53 18.00L23.53 18.00L23.53 17.52Q23.53 16.28 23.97 15.32Q24.41 14.37 25.22 13.86Q26.02 13.35 27.07 13.35Q28.11 13.35 28.92 13.85Q29.72 14.35 30.16 15.29Q30.60 16.23 30.61 17.48L30.61 17.48L30.61 17.96Q30.61 19.21 30.17 20.16Q29.74 21.10 28.93 21.61Q28.13 22.12 27.08 22.12L27.08 22.12Q26.04 22.12 25.23 21.61Q24.42 21.10 23.98 20.17Q23.53 19.23 23.53 18.00ZM25.01 17.46L25.01 17.96Q25.01 19.36 25.56 20.13Q26.11 20.90 27.08 20.90L27.08 20.90Q28.06 20.90 28.59 20.15Q29.12 19.40 29.12 17.96L29.12 17.96L29.12 17.51Q29.12 16.09 28.59 15.34Q28.05 14.58 27.07 14.58L27.07 14.58Q26.11 14.58 25.56 15.33Q25.02 16.09 25.01 17.46L25.01 17.46ZM36.55 22L35.07 22L35.07 13.47L38.07 13.47Q39.55 13.47 40.35 14.13Q41.15 14.79 41.15 16.05L41.15 16.05Q41.15 16.90 40.74 17.48Q40.33 18.06 39.59 18.37L39.59 18.37L41.50 21.92L41.50 22L39.92 22L38.21 18.71L36.55 18.71L36.55 22ZM36.55 14.66L36.55 17.52L38.08 17.52Q38.83 17.52 39.25 17.15Q39.67 16.77 39.67 16.11L39.67 16.11Q39.67 15.43 39.28 15.05Q38.89 14.68 38.12 14.66L38.12 14.66L36.55 14.66Z" fill="#FFFFFF"/><path class="svg__text" d="M67.04 17.80L67.04 17.80Q67.04 16.54 67.64 15.54Q68.24 14.55 69.30 13.99Q70.37 13.43 71.72 13.43L71.72 13.43Q72.89 13.43 73.83 13.83Q74.77 14.22 75.39 14.97L75.39 14.97L73.88 16.33Q73.03 15.40 71.86 15.40L71.86 15.40Q71.84 15.40 71.84 15.40L71.84 15.40Q70.76 15.40 70.10 16.06Q69.44 16.71 69.44 17.80L69.44 17.80Q69.44 18.50 69.74 19.04Q70.04 19.59 70.58 19.89Q71.12 20.20 71.82 20.20L71.82 20.20Q72.50 20.20 73.10 19.93L73.10 19.93L73.10 17.62L75.20 17.62L75.20 21.10Q74.48 21.61 73.54 21.89Q72.61 22.17 71.67 22.17L71.67 22.17Q70.35 22.17 69.29 21.61Q68.24 21.05 67.64 20.05Q67.04 19.06 67.04 17.80ZM79.76 17.80L79.76 17.80Q79.76 16.55 80.36 15.55Q80.97 14.56 82.03 14.00Q83.09 13.43 84.42 13.43L84.42 13.43Q85.75 13.43 86.82 14.00Q87.88 14.56 88.49 15.55Q89.09 16.55 89.09 17.80L89.09 17.80Q89.09 19.05 88.49 20.04Q87.88 21.04 86.82 21.60Q85.76 22.17 84.42 22.17L84.42 22.17Q83.09 22.17 82.03 21.60Q80.97 21.04 80.36 20.04Q79.76 19.05 79.76 17.80ZM82.16 17.80L82.16 17.80Q82.16 18.51 82.46 19.05Q82.76 19.60 83.28 19.90Q83.79 20.20 84.42 20.20L84.42 20.20Q85.06 20.20 85.58 19.90Q86.09 19.60 86.39 19.05Q86.69 18.51 86.69 17.80L86.69 17.80Q86.69 17.09 86.39 16.54Q86.09 16 85.58 15.70Q85.06 15.40 84.42 15.40L84.42 15.40Q83.79 15.40 83.27 15.70Q82.76 16 82.46 16.54Q82.16 17.09 82.16 17.80ZM100.21 22L93.82 22L93.82 13.60L96.20 13.60L96.20 20.11L100.21 20.11L100.21 22ZM106.05 22L103.62 22L107.33 13.60L109.67 13.60L113.39 22L110.92 22L110.26 20.37L106.71 20.37L106.05 22ZM108.48 15.93L107.40 18.61L109.56 18.61L108.48 15.93ZM119.87 22L117.54 22L117.54 13.60L119.50 13.60L123.21 18.07L123.21 13.60L125.53 13.60L125.53 22L123.58 22L119.87 17.52L119.87 22ZM130.27 17.80L130.27 17.80Q130.27 16.54 130.87 15.54Q131.46 14.55 132.53 13.99Q133.60 13.43 134.94 13.43L134.94 13.43Q136.12 13.43 137.06 13.83Q138.00 14.22 138.62 14.97L138.62 14.97L137.11 16.33Q136.26 15.40 135.09 15.40L135.09 15.40Q135.07 15.40 135.07 15.40L135.07 15.40Q133.99 15.40 133.33 16.06Q132.67 16.71 132.67 17.80L132.67 17.80Q132.67 18.50 132.97 19.04Q133.27 19.59 133.81 19.89Q134.35 20.20 135.04 20.20L135.04 20.20Q135.73 20.20 136.33 19.93L136.33 19.93L136.33 17.62L138.42 17.62L138.42 21.10Q137.70 21.61 136.77 21.89Q135.84 22.17 134.90 22.17L134.90 22.17Q133.58 22.17 132.52 21.61Q131.46 21.05 130.87 20.05Q130.27 19.06 130.27 17.80Z" fill="#FFFFFF" x="66.28"/></svg>