<svg xmlns="http://www.w3.org/2000/svg" width="175.29" height="35" viewBox="0 0 175.29 35"><rect class="svg__rect" x="0" y="0" width="94.41" height="35" fill="#419B5A"/><rect class="svg__rect" x="92.41" y="0" width="82.88" height="35" fill="#BFC600"/><path class="svg__text" d="M16.51 22L13.46 13.47L15.08 13.47L17.22 20.14L19.39 13.47L21.02 13.47L17.95 22L16.51 22ZM30.55 22L24.97 22L24.97 13.47L30.51 13.47L30.51 14.66L26.45 14.66L26.45 17.02L29.96 17.02L29.96 18.19L26.45 18.19L26.45 20.82L30.55 20.82L30.55 22ZM36.23 22L34.74 22L34.74 13.47L37.74 13.47Q39.22 13.47 40.02 14.13Q40.82 14.79 40.82 16.05L40.82 16.05Q40.82 16.90 40.41 17.48Q40.00 18.06 39.26 18.37L39.26 18.37L41.18 21.92L41.18 22L39.59 22L37.88 18.71L36.23 18.71L36.23 22ZM36.23 14.66L36.23 17.52L37.75 17.52Q38.50 17.52 38.92 17.15Q39.34 16.77 39.34 16.11L39.34 16.11Q39.34 15.43 38.95 15.05Q38.56 14.68 37.79 14.66L37.79 14.66L36.23 14.66ZM44.79 19.42L44.79 19.42L46.27 19.42Q46.27 20.15 46.75 20.55Q47.23 20.95 48.13 20.95L48.13 20.95Q48.90 20.95 49.29 20.63Q49.68 20.32 49.68 19.80L49.68 19.80Q49.68 19.24 49.28 18.94Q48.89 18.63 47.86 18.32Q46.82 18.01 46.22 17.63L46.22 17.63Q45.05 16.90 45.05 15.72L45.05 15.72Q45.05 14.69 45.89 14.02Q46.73 13.35 48.07 13.35L48.07 13.35Q48.96 13.35 49.66 13.68Q50.36 14.01 50.76 14.61Q51.15 15.22 51.15 15.96L51.15 15.96L49.68 15.96Q49.68 15.29 49.26 14.91Q48.84 14.54 48.06 14.54L48.06 14.54Q47.33 14.54 46.93 14.85Q46.53 15.16 46.53 15.71L46.53 15.71Q46.53 16.18 46.97 16.50Q47.40 16.81 48.39 17.10Q49.39 17.40 49.99 17.78Q50.60 18.16 50.88 18.65Q51.16 19.13 51.16 19.79L51.16 19.79Q51.16 20.86 50.34 21.49Q49.53 22.12 48.13 22.12L48.13 22.12Q47.20 22.12 46.42 21.77Q45.65 21.43 45.22 20.83Q44.79 20.22 44.79 19.42ZM57.01 22L55.54 22L55.54 13.47L57.01 13.47L57.01 22ZM61.56 18.00L61.56 18.00L61.56 17.52Q61.56 16.28 62.00 15.32Q62.44 14.37 63.25 13.86Q64.05 13.35 65.09 13.35Q66.14 13.35 66.94 13.85Q67.75 14.35 68.19 15.29Q68.63 16.23 68.63 17.48L68.63 17.48L68.63 17.96Q68.63 19.21 68.20 20.16Q67.77 21.10 66.96 21.61Q66.15 22.12 65.11 22.12L65.11 22.12Q64.07 22.12 63.26 21.61Q62.45 21.10 62.00 20.17Q61.56 19.23 61.56 18.00ZM63.04 17.46L63.04 17.96Q63.04 19.36 63.59 20.13Q64.13 20.90 65.11 20.90L65.11 20.90Q66.09 20.90 66.62 20.15Q67.15 19.40 67.15 17.96L67.15 17.96L67.15 17.51Q67.15 16.09 66.61 15.34Q66.08 14.58 65.09 14.58L65.09 14.58Q64.13 14.58 63.59 15.33Q63.05 16.09 63.04 17.46L63.04 17.46ZM74.58 22L73.10 22L73.10 13.47L74.58 13.47L78.39 19.54L78.39 13.47L79.87 13.47L79.87 22L78.38 22L74.58 15.95L74.58 22Z" fill="#060505"/><path class="svg__text" d="M109.18 22L105.59 13.60L108.16 13.60L110.44 19.07L112.77 13.60L115.12 13.60L111.52 22L109.18 22ZM118.84 17.80L118.84 17.80Q118.84 16.45 119.32 15.46Q119.79 14.46 120.63 13.95Q121.47 13.43 122.55 13.43L122.55 13.43Q123.61 13.43 124.45 13.95Q125.30 14.46 125.77 15.46Q126.24 16.45 126.24 17.80L126.24 17.80Q126.24 19.15 125.77 20.15Q125.30 21.14 124.46 21.65Q123.62 22.17 122.55 22.17L122.55 22.17Q121.47 22.17 120.63 21.65Q119.79 21.14 119.32 20.15Q118.84 19.16 118.84 17.80ZM121.23 17.80L121.23 17.80Q121.23 19.06 121.58 19.64Q121.94 20.22 122.55 20.22L122.55 20.22Q123.15 20.22 123.51 19.64Q123.86 19.06 123.86 17.80L123.86 17.80Q123.86 16.54 123.51 15.96Q123.15 15.38 122.55 15.38L122.55 15.38Q121.94 15.38 121.58 15.96Q121.23 16.54 121.23 17.80ZM130.46 20.75L130.46 20.75Q130.46 20.15 130.85 19.78Q131.24 19.41 131.83 19.41L131.83 19.41Q132.43 19.41 132.81 19.78Q133.19 20.15 133.19 20.75L133.19 20.75Q133.19 21.34 132.80 21.72Q132.41 22.11 131.83 22.11L131.83 22.11Q131.25 22.11 130.85 21.72Q130.46 21.34 130.46 20.75ZM137.42 17.80L137.42 17.80Q137.42 16.45 137.90 15.46Q138.37 14.46 139.21 13.95Q140.05 13.43 141.13 13.43L141.13 13.43Q142.19 13.43 143.03 13.95Q143.88 14.46 144.35 15.46Q144.82 16.45 144.82 17.80L144.82 17.80Q144.82 19.15 144.35 20.15Q143.88 21.14 143.04 21.65Q142.20 22.17 141.13 22.17L141.13 22.17Q140.05 22.17 139.21 21.65Q138.37 21.14 137.90 20.15Q137.42 19.16 137.42 17.80ZM139.81 17.80L139.81 17.80Q139.81 19.06 140.16 19.64Q140.52 20.22 141.13 20.22L141.13 20.22Q141.73 20.22 142.09 19.64Q142.44 19.06 142.44 17.80L142.44 17.80Q142.44 16.54 142.09 15.96Q141.73 15.38 141.13 15.38L141.13 15.38Q140.52 15.38 140.16 15.96Q139.81 16.54 139.81 17.80ZM149.04 20.75L149.04 20.75Q149.04 20.15 149.43 19.78Q149.82 19.41 150.41 19.41L150.41 19.41Q151.01 19.41 151.39 19.78Q151.77 20.15 151.77 20.75L151.77 20.75Q151.77 21.34 151.38 21.72Q150.99 22.11 150.41 22.11L150.41 22.11Q149.83 22.11 149.43 21.72Q149.04 21.34 149.04 20.75ZM155.55 21.34L155.55 21.34L156.41 19.55Q156.90 19.88 157.52 20.07Q158.14 20.25 158.74 20.25L158.74 20.25Q159.35 20.25 159.71 20.02Q160.07 19.79 160.07 19.37L160.07 19.37Q160.07 18.55 158.79 18.55L158.79 18.55L157.79 18.55L157.79 17.05L159.29 15.44L155.98 15.44L155.98 13.60L162.05 13.60L162.05 15.09L160.31 16.96Q161.35 17.18 161.91 17.82Q162.47 18.46 162.47 19.37L162.47 19.37Q162.47 20.11 162.07 20.75Q161.66 21.39 160.84 21.78Q160.02 22.17 158.81 22.17L158.81 22.17Q157.92 22.17 157.05 21.95Q156.18 21.74 155.55 21.34Z" fill="#000000" x="105.41"/></svg>